<svg width="24" height="24" viewBox="0 0 24 24" fill="none" xmlns="http://www.w3.org/2000/svg">
<g clip-path="url(#clip0_1_557)">
<path d="M13.4139 11.9999L23.7069 1.70694C23.8891 1.51833 23.9899 1.26573 23.9876 1.00353C23.9853 0.741338 23.8801 0.490526 23.6947 0.305117C23.5093 0.119709 23.2585 0.0145404 22.9963 0.012262C22.7341 0.00998358 22.4815 0.110778 22.2929 0.292936L11.9999 10.5859L1.70691 0.292936C1.51831 0.110778 1.2657 0.00998358 1.00351 0.012262C0.741311 0.0145404 0.490498 0.119709 0.30509 0.305117C0.119682 0.490526 0.0145129 0.741338 0.0122345 1.00353C0.00995606 1.26573 0.11075 1.51833 0.292909 1.70694L10.5859 11.9999L0.292909 22.2929C0.105437 22.4805 0.00012207 22.7348 0.00012207 22.9999C0.00012207 23.2651 0.105437 23.5194 0.292909 23.7069C0.480436 23.8944 0.734744 23.9997 0.999909 23.9997C1.26507 23.9997 1.51938 23.8944 1.70691 23.7069L11.9999 13.4139L22.2929 23.7069C22.4804 23.8944 22.7347 23.9997 22.9999 23.9997C23.2651 23.9997 23.5194 23.8944 23.7069 23.7069C23.8944 23.5194 23.9997 23.2651 23.9997 22.9999C23.9997 22.7348 23.8944 22.4805 23.7069 22.2929L13.4139 11.9999Z" fill="#374957"/>
</g>
<defs>
<clipPath id="clip0_1_557">
<rect width="24" height="24" fill="white"/>
</clipPath>
</defs>
</svg>
