<svg width="30" height="26" viewBox="0 0 30 26" fill="none" xmlns="http://www.w3.org/2000/svg">
<path d="M21.5801 0.865234C21.2344 0.953125 20.7715 1.25781 20.5547 1.54492C20.1211 2.11328 20.1504 1.20508 20.168 13.1172L20.1856 23.8105L20.3203 24.0742C20.5254 24.4961 20.7598 24.7422 21.1641 24.959C21.5039 25.1406 21.5742 25.1582 22.0313 25.1582C22.4883 25.1582 22.5586 25.1406 22.8984 24.959C23.3086 24.7363 23.4844 24.5547 23.7188 24.1094L23.877 23.8105V13V2.18945L23.6777 1.82031C23.4551 1.41016 23.2676 1.22852 22.8399 1.01172C22.5234 0.847656 21.9141 0.777344 21.5801 0.865234Z" fill="#023C85"/>
<path d="M18.9785 4.10547C17.0156 5.76953 14.1797 7.29883 11.2207 8.2832C10.2773 8.59961 9.83203 8.7168 8.80664 8.93359L8.67188 8.95703V13V17.043L8.80664 17.0664C9.83203 17.2832 10.2773 17.4004 11.2207 17.7168C14.1855 18.7012 17.0156 20.2246 18.9785 21.8945L19.4238 22.2754L19.4414 17.6348C19.4473 15.0859 19.4473 10.9141 19.4414 8.36523L19.4238 3.72461L18.9785 4.10547Z" fill="#023C85"/>
<path d="M26.3379 6.76562C25.6934 7.07031 25.1074 7.38672 25.0371 7.46875C24.6387 7.9082 24.9668 8.60547 25.5645 8.60547C25.7051 8.60547 26.1504 8.42383 26.9707 8.02539C27.9785 7.53906 28.1895 7.41602 28.2656 7.26953C28.5234 6.77734 28.2012 6.20312 27.6738 6.20312C27.5859 6.20312 26.9824 6.45508 26.3379 6.76562Z" fill="#023C85"/>
<path d="M1.78711 9.09766C1.16016 9.29688 0.697266 9.69531 0.427734 10.2754L0.263672 10.627V13V15.373L0.427734 15.7305C0.638672 16.1816 1.03711 16.5801 1.49414 16.791C1.80469 16.9316 1.92773 16.9551 2.56641 16.9727L3.28125 16.9961V13.0059V9.01562L2.6543 9.02148C2.30273 9.02148 1.91602 9.05664 1.78711 9.09766Z" fill="#023C85"/>
<path d="M3.98438 13V16.9844H5.97656H7.96875V13V9.01562H5.97656H3.98438V13Z" fill="#023C85"/>
<path d="M26.4551 12.3496C26.1973 12.4609 26.0449 12.7012 26.0449 13.0059C26.0449 13.252 26.0742 13.3164 26.2383 13.4805L26.4258 13.6738H27.8906H29.3555L29.543 13.4805C29.707 13.3164 29.7363 13.252 29.7363 13C29.7363 12.748 29.707 12.6836 29.543 12.5195L29.3555 12.3262L27.9609 12.3145C27.1992 12.3086 26.5195 12.3262 26.4551 12.3496Z" fill="#023C85"/>
<path d="M25.1485 17.541C25.0488 17.6231 24.9317 17.7988 24.8965 17.9219C24.8379 18.1094 24.8438 18.1797 24.9375 18.3731C25.043 18.5781 25.1309 18.6367 26.2207 19.1699C26.8653 19.4922 27.4863 19.7617 27.6035 19.7793C28.1602 19.8613 28.541 19.2578 28.2656 18.7305C28.1895 18.584 27.9844 18.4609 27.0235 17.9981C25.6875 17.3477 25.4473 17.2891 25.1485 17.541Z" fill="#023C85"/>
<path d="M3.99609 19.9434L4.01367 22.1992L4.20703 22.3867L4.39453 22.5801H5.47852H6.5625L6.73242 22.4043C6.89062 22.2461 6.95508 22.0293 7.46484 19.9902C7.77539 18.7539 8.02734 17.7344 8.02734 17.7168C8.02734 17.6992 7.11914 17.6875 6.00586 17.6875H3.97852L3.99609 19.9434Z" fill="#023C85"/>
</svg>
