<svg width="30" height="26" viewBox="0 0 30 26" fill="none" xmlns="http://www.w3.org/2000/svg">
<path d="M6.50391 0.496094C6.01172 0.595703 5.16211 1.02344 4.7168 1.38086C3.76758 2.14844 3.19336 3.28516 3.12305 4.5332C3.07618 5.34766 3.19922 5.93359 3.58594 6.73047C3.84375 7.26367 3.94922 7.4043 4.41797 7.87305C4.86329 8.31836 5.03907 8.45312 5.50782 8.68164C6.2168 9.02734 6.72071 9.15039 7.47071 9.15039C8.26758 9.15039 9.00586 8.96875 9.58594 8.63477C9.81446 8.5 9.83204 8.4707 9.96094 7.97852C10.2188 6.98242 10.875 5.88672 11.584 5.2832L11.9121 5.00195L11.877 4.47461C11.7949 3.27344 11.2148 2.13672 10.2832 1.38086C9.83204 1.01172 8.99414 0.601562 8.4668 0.490234C7.95704 0.384766 7.00782 0.384766 6.50391 0.496094Z" fill="#023C85"/>
<path d="M21.5039 0.490235C21.0059 0.601563 20.1621 1.02344 19.7168 1.38086C18.8379 2.0957 18.2461 3.19727 18.1289 4.35742L18.0938 4.71484L18.3457 4.88477C19.4648 5.61719 20.4082 7.13477 20.5957 8.4707C20.6309 8.75195 20.6484 8.77539 20.877 8.86328C21.4219 9.06836 21.8906 9.15039 22.5 9.15039C23.2793 9.15039 23.7715 9.0332 24.4922 8.68164C24.9609 8.45313 25.1367 8.31836 25.582 7.87305C26.0508 7.4043 26.1562 7.26367 26.4141 6.73047C26.8008 5.93359 26.9238 5.34766 26.877 4.5332C26.7715 2.66992 25.541 1.11719 23.7246 0.548829C23.2852 0.408204 22.0137 0.373048 21.5039 0.490235Z" fill="#023C85"/>
<path d="M14.4902 4.97265C13.4121 5.16601 12.3984 5.78124 11.748 6.64257C11.3789 7.13476 11.1914 7.49218 11.0039 8.07812C10.8926 8.45312 10.8691 8.64062 10.8691 9.33788C10.8691 10.2402 10.9512 10.5859 11.3203 11.3184C12.5742 13.8027 15.9023 14.4883 18.0234 12.6953C19.6465 11.3242 20.0742 9.12109 19.084 7.22851C18.9023 6.87695 18.7031 6.62499 18.3105 6.23242C17.7188 5.64062 17.1621 5.30663 16.4062 5.08984C15.9023 4.94921 14.959 4.89062 14.4902 4.97265Z" fill="#023C85"/>
<path d="M4.50587 9.60156C2.28516 10.0703 0.574224 11.7988 0.117193 14.0371C0.00586508 14.5937 5.70808e-06 14.8047 0.0117245 17.1953L0.0293026 19.7559L0.908209 20.0078C1.89258 20.2949 3.36329 20.623 4.24805 20.7637C4.83399 20.8574 6.30469 21.0273 6.53907 21.0273C6.66212 21.0273 6.66798 21.0039 6.69727 19.8086C6.72071 18.748 6.74415 18.5195 6.87891 18.0098C7.17188 16.8906 7.88673 15.666 8.7129 14.8633C9.35743 14.2363 10.459 13.5625 11.1797 13.3457C11.3145 13.3047 11.4258 13.2578 11.4258 13.2344C11.4258 13.2168 11.3438 13.123 11.2441 13.0234C10.5469 12.3613 9.92579 10.9961 9.8086 9.85937L9.76758 9.48437L7.38868 9.49023C5.32618 9.49023 4.94532 9.50781 4.50587 9.60156Z" fill="#023C85"/>
<path d="M20.6602 9.61328C20.6426 9.68945 20.6133 9.89453 20.5957 10.0703C20.4961 10.9551 20.0391 12.0039 19.418 12.7715C19.207 13.0352 19.043 13.252 19.0547 13.2637C19.0664 13.2695 19.2246 13.334 19.4063 13.3984C20.9766 13.9785 22.2891 15.1621 23.0567 16.6914C23.5664 17.7109 23.7188 18.4082 23.7715 19.9551C23.8067 21.0625 23.8067 21.0859 23.9297 21.0566C24 21.0449 24.3164 21.0156 24.6387 20.998C26.3613 20.8867 28.3359 20.4355 29.5488 19.873L30 19.6621V17.1426C30 14.8398 29.9883 14.582 29.877 14.0371C29.4258 11.7812 27.709 10.0586 25.4649 9.5957C25.002 9.50195 24.6563 9.48438 22.8106 9.48438H20.6836L20.6602 9.61328Z" fill="#023C85"/>
<path d="M12.7559 14.0605C11.3379 14.207 9.94336 14.957 9.0293 16.0586C8.60156 16.5684 8.07422 17.5879 7.89844 18.2441C7.77539 18.6895 7.76953 18.8477 7.74609 21.502L7.72852 24.291L8.44922 24.502C9.98438 24.9531 11.2793 25.2285 12.7148 25.4219C13.8809 25.5801 16.4473 25.6445 17.4844 25.5449C19.4238 25.3516 21.0938 24.959 22.2539 24.4199L22.7461 24.1914L22.7168 21.543C22.6875 18.5898 22.6699 18.4434 22.2832 17.5117C21.4629 15.5605 19.7051 14.2715 17.584 14.0547C16.8867 13.9844 13.4297 13.9902 12.7559 14.0605Z" fill="#023C85"/>
</svg>
