<svg width="25" height="24" viewBox="0 0 25 24" fill="none" xmlns="http://www.w3.org/2000/svg">
<g clip-path="url(#clip0_13_97)">
<path d="M24.0612 21.4455L19.4161 16.7984C22.8918 12.1536 21.9441 5.57058 17.2993 2.09486C12.6545 -1.38086 6.07153 -0.433144 2.59581 4.21163C-0.879913 8.8564 0.0678023 15.4394 4.71258 18.9151C8.44364 21.7071 13.5682 21.7071 17.2993 18.9151L21.9464 23.5622C22.5304 24.1462 23.4772 24.1462 24.0612 23.5622C24.6452 22.9782 24.6452 22.0314 24.0612 21.4475L24.0612 21.4455ZM11.0447 18.0182C6.91661 18.0182 3.5702 14.6718 3.5702 10.5437C3.5702 6.41566 6.91661 3.06925 11.0447 3.06925C15.1727 3.06925 18.5191 6.41566 18.5191 10.5437C18.5147 14.6699 15.1709 18.0138 11.0447 18.0182Z" fill="#023C85"/>
</g>
<defs>
<clipPath id="clip0_13_97">
<rect width="24" height="24" fill="white" transform="translate(0.5)"/>
</clipPath>
</defs>
</svg>
