<svg width="23" height="29" viewBox="0 0 23 29" fill="none" xmlns="http://www.w3.org/2000/svg">
<path d="M10.9166 0.0623045C10.1633 0.23789 9.54023 0.838281 9.325 1.5916C9.27402 1.76719 9.16641 1.97109 9.08711 2.04473C8.94551 2.175 8.91719 2.18066 7.8127 2.19766L6.68555 2.21465V4.08379V5.94727H11.5H16.3145V4.08379V2.21465L15.159 2.19766C14.0205 2.18066 13.9979 2.18066 13.8563 2.04473C13.7713 1.96543 13.6807 1.80117 13.6467 1.67656C13.4371 0.889257 12.8764 0.311523 12.1287 0.0906248C11.7945 -0.00566435 11.2621 -0.0169926 10.9166 0.0623045Z" fill="#023C85"/>
<path d="M1.75216 4.50857C1.40099 4.61619 1.01017 4.96736 0.845912 5.33553L0.709974 5.63572L0.692982 16.5051C0.67599 28.4562 0.658998 27.7652 1.0215 28.2863C1.23107 28.5978 1.62755 28.864 2.00138 28.9433C2.21095 28.9887 4.97501 29 11.6756 28.9887L21.0496 28.9717L21.3838 28.8017C21.7746 28.6035 22.0975 28.2183 22.2164 27.8162C22.2787 27.601 22.2901 25.5789 22.2901 16.5957V5.63572L22.1541 5.33553C22.0748 5.15994 21.9106 4.94471 21.7633 4.81443C21.3442 4.44061 21.1799 4.41795 19.1918 4.41795H17.4473V5.47146C17.4473 6.58728 17.3963 6.84216 17.1584 6.96677C17.0961 7.00642 14.9891 7.01775 11.4377 7.01209L5.81896 6.99509L5.70001 6.8365C5.5924 6.68924 5.58107 6.59295 5.56408 5.5451L5.54708 4.41795L3.7799 4.42361C2.42619 4.42361 1.9504 4.44627 1.75216 4.50857ZM8.44708 9.7365C8.70763 10.0027 8.67931 10.2463 8.34513 10.5918C7.56915 11.3734 5.42814 13.3105 5.30919 13.3388C5.2299 13.3615 5.11661 13.3615 5.05997 13.3445C4.87872 13.2879 3.18517 11.5433 3.14552 11.3678C3.09454 11.1695 3.20783 10.892 3.37775 10.7787C3.45138 10.7334 3.60997 10.6937 3.72326 10.6937C3.9215 10.6937 3.9838 10.739 4.57286 11.3564L5.2129 12.0248L5.62072 11.6396C5.84728 11.4244 6.43634 10.875 6.92345 10.4105C7.77306 9.60623 7.82404 9.57224 8.04494 9.57224C8.23185 9.57224 8.31681 9.60623 8.44708 9.7365ZM19.6959 11.6963C19.8715 11.8719 19.8942 11.9228 19.8658 12.1041C19.8432 12.2174 19.7639 12.376 19.6846 12.4553L19.543 12.6025H15.0344H10.5258L10.3615 12.4156C10.1803 12.2174 10.152 12.0078 10.2766 11.7869C10.4408 11.4924 10.2992 11.5037 15.0627 11.498H19.4977L19.6959 11.6963ZM8.44708 15.6838C8.60568 15.848 8.65665 16.0689 8.57736 16.2785C8.52638 16.4031 5.5131 19.2181 5.36017 19.2804C5.09962 19.3824 4.9297 19.2635 4.09142 18.4025C3.63263 17.9324 3.22482 17.4849 3.17951 17.4056C3.12286 17.2867 3.1172 17.2131 3.16818 17.0488C3.24747 16.7883 3.44005 16.6523 3.72326 16.6523C3.9215 16.6523 3.97814 16.692 4.57286 17.315L5.2129 17.9777L5.47911 17.7228C5.63204 17.5812 6.21544 17.0261 6.78185 16.4937C7.77306 15.5592 7.8297 15.5195 8.0506 15.5195C8.22619 15.5195 8.31681 15.5535 8.44708 15.6838ZM19.6846 17.6209C19.7639 17.7002 19.8432 17.8588 19.8658 17.972C19.8942 18.1533 19.8715 18.2043 19.6959 18.3799L19.4977 18.5781H15.074C11.7719 18.5781 10.6164 18.5611 10.5088 18.5101C10.3389 18.4365 10.1973 18.1986 10.1973 17.9947C10.1973 17.8304 10.3899 17.5699 10.5598 17.5019C10.6221 17.4736 12.6725 17.4566 15.108 17.4623L19.543 17.4736L19.6846 17.6209ZM8.44708 21.631C8.60568 21.7953 8.65665 22.0162 8.57736 22.2258C8.56036 22.2711 7.99396 22.8318 7.31994 23.4662C5.32052 25.341 5.41115 25.2617 5.17326 25.2617C4.97501 25.2617 4.90704 25.2051 4.09142 24.3724C3.61564 23.8797 3.20216 23.4152 3.16818 23.3416C3.03224 23.0074 3.3381 22.5996 3.72892 22.5996C3.9215 22.5996 3.98947 22.6506 4.57286 23.2623L5.20724 23.9306L5.42247 23.7267C5.54142 23.6191 6.07384 23.1207 6.6006 22.6222C7.13302 22.1238 7.63712 21.6594 7.72775 21.5914C7.96564 21.4101 8.23751 21.4271 8.44708 21.631ZM19.6393 23.5398C19.8432 23.6928 19.9225 23.9533 19.8262 24.1855C19.6789 24.5367 19.8658 24.5254 15.0117 24.5254C12.0834 24.5254 10.5485 24.5084 10.4748 24.4687C10.3389 24.3951 10.1973 24.1232 10.1973 23.9363C10.1973 23.7664 10.4408 23.4662 10.6108 23.4322C10.6787 23.4209 12.7008 23.4095 15.108 23.4152C19.4524 23.4209 19.4807 23.4209 19.6393 23.5398Z" fill="#023C85"/>
</svg>
